:SAMPLES-PER-SECOND 30
:FRAME-RANGE 1-1086
:FULLY-SPECIFIED
:DEGREES
713
root  91.3356 39.9022 13.1099 -173.403 3.23227 177.627
RightUpLeg  -6.32665 -8.80906 -3.45111
RightLeg  9.00778 -16.7486 1.44376
RightFoot  -8.93347 -0.14826 4.16451
RightToes  -5.8209e-011 0 -3.6325e-017
Spine  5.5229 0.058731 4.66088
Spine1  2.82995 -0.1553 0.806952
HEad  -6.87335 15.0561 -9.11542
LeftShoulder1  2.35215 -3.00741 -30.0903
LeftArm  18.5016 -20.2622 -26.1363
LeftForeArm  -11.3829 -8.2171 -17.5907
LeftHand  0.405396 -0.66058 -7.74914
RightShoulder  13.3476 20.5669 48.4576
RightArm  42.3011 7.32187 19.1225
RightForeArm  -29.8827 18.3946 11.1789
RightHand  0.568407 0.796523 10.5956
LeftUpLeg  -27.548 16.8858 1.82661
LeftLeg  25.5743 -3.04259 -1.25856
LeftFoot  -4.43304 0.724465 -11.5336
LeftToes  5.72949e-011 5.22586e-011 2.45399e-011
714
root  91.2664 39.9305 12.6254 -173.398 1.82583 177.599
RightUpLeg  -4.89238 -9.0177 -3.75282
RightLeg  8.14111 -17.9433 1.69502
RightFoot  -9.11343 -0.149096 4.48061
RightToes  -5.8209e-011 0 -3.6325e-017
Spine  5.09784 0.133667 4.37262
Spine1  2.50721 -0.0534656 0.624267
HEad  -6.69389 15.4661 -9.58167
LeftShoulder1  2.28656 -2.66229 -31.0561
LeftArm  24.0568 -16.1488 -26.1843
LeftForeArm  -12.3649 -7.6607 -18.2011
LeftHand  0.394193 -0.860625 -7.26913
RightShoulder  13.0199 19.4474 49.6016
RightArm  29.0142 6.29936 17.8811
RightForeArm  -12.4524 7.75065 17.7212
RightHand  0.528329 1.61545 8.61277
LeftUpLeg  -26.7607 18.8267 1.13073
LeftLeg  20.5734 -3.31272 -1.05301
LeftFoot  -3.89971 0.766272 -11.3959
LeftToes  5.72949e-011 5.22586e-011 2.45399e-011
715
root  91.1221 39.9292 12.1275 -173.409 0.40885 177.666
RightUpLeg  -3.44721 -9.38861 -4.14931
RightLeg  7.40975 -18.8578 2.11843
RightFoot  -9.44678 -0.148539 5.09719
RightToes  -5.8209e-011 0 -3.6325e-017
Spine  4.97853 0.172895 4.19852
Spine1  1.9639 0.0339474 0.419771
HEad  -6.57476 15.721 -9.86365
LeftShoulder1  2.21996 -2.34669 -31.9194
LeftArm  29.2823 -11.8358 -26.2356
LeftForeArm  -14.5315 -7.326 -18.7104
LeftHand  0.357995 -0.584516 -6.93397
RightShoulder  12.4099 17.9563 50.5811
RightArm  22.9984 4.84053 16.5193
RightForeArm  -4.10335 0.443889 19.4803
RightHand  0.475149 1.89424 7.41157
LeftUpLeg  -25.8931 20.9847 0.326643
LeftLeg  15.5807 -2.90554 -0.642524
LeftFoot  -3.15061 0.82192 -11.1896
LeftToes  5.72949e-011 5.22586e-011 2.45399e-011
716
root  90.9253 39.8972 11.6166 -173.27 -0.705822 178.076
RightUpLeg  -2.2641 -9.45911 -4.16636
RightLeg  6.78734 -19.6884 2.441
RightFoot  -9.73459 -0.145943 5.68433
RightToes  -5.8209e-011 0 -3.6325e-017
Spine  4.56276 0.285346 4.15684
Spine1  1.7514 0.152033 0.403958
HEad  -6.71188 15.8304 -10.4119
LeftShoulder1  2.13896 -2.00769 -32.7793
LeftArm  32.2302 -7.2681 -25.9642
LeftForeArm  -16.3652 -7.13096 -19.0098
LeftHand  0.34643 -0.402204 -6.94297
RightShoulder  11.5038 16.2297 51.0063
RightArm  17.8295 3.02975 15.3083
RightForeArm  2.67901 -1.97087 19.2147
RightHand  0.45388 2.17131 6.78891
LeftUpLeg  -24.454 19.3099 2.09322
LeftLeg  11.2143 2.85271 -1.12784
LeftFoot  -1.87471 0.836631 -9.95117
LeftToes  5.72949e-011 5.22586e-011 2.45399e-011
717
root  90.6495 39.822 11.0764 -173.215 -1.9311 178.632
RightUpLeg  -1.02761 -9.62319 -4.16696
RightLeg  6.40642 -20.5384 2.76082
RightFoot  -10.127 -0.136506 6.37772
RightToes  -5.8209e-011 0 -3.6325e-017
Spine  4.42697 0.258425 3.88677
Spine1  1.29361 0.0164267 0.896837
HEad  -6.88131 15.9603 -10.5055
LeftShoulder1  2.04857 -1.69505 -33.3675
LeftArm  29.6539 -2.08233 -25.5547
LeftForeArm  -13.9863 -6.07558 -19.1977
LeftHand  0.370577 -0.54533 -7.23144
RightShoulder  10.3077 14.2496 50.8225
RightArm  15.0451 0.978514 14.4802
RightForeArm  5.61653 -2.74718 18.928
RightHand  0.417868 2.25694 6.15963
LeftUpLeg  -23.2522 16.4563 4.23701
LeftLeg  8.20288 9.16358 -1.89786
LeftFoot  -0.853507 0.797657 -8.62509
LeftToes  5.72949e-011 5.22586e-011 2.45399e-011
718
root  90.2993 39.7265 10.5164 -173.277 -2.83135 179.174
RightUpLeg  0.204994 -9.82739 -4.30982
RightLeg  6.28308 -20.9933 2.93086
RightFoot  -10.5768 -0.121046 7.35114
RightToes  -5.8209e-011 0 -3.6325e-017
Spine  4.5012 0.244152 3.57755
Spine1  0.821201 -0.0560873 1.20118
HEad  -7.16632 15.9704 -10.1435
LeftShoulder1  1.95148 -1.42438 -33.5565
LeftArm  25.6072 3.27035 -25.3833
LeftForeArm  -10.1399 -5.02469 -19.1724
LeftHand  0.3895 -0.732121 -7.34795
RightShoulder  9.12881 12.328 50.4915
RightArm  15.8909 -0.965533 13.8932
RightForeArm  4.48597 -2.66361 18.999
RightHand  0.413941 2.28254 6.07746
LeftUpLeg  -22.4126 15.0224 5.59175
LeftLeg  6.4833 12.7328 -2.42205
LeftFoot  -0.23696 0.722704 -7.41453
LeftToes  5.72949e-011 5.22586e-011 2.45399e-011
719
root  89.8739 39.6028 9.93011 -173.219 -3.41197 179.894
RightUpLeg  1.21956 -9.77906 -4.27448
RightLeg  6.292 -21.3426 2.86277
RightFoot  -10.9918 -0.101064 8.59686
RightToes  -5.8209e-011 0 -3.6325e-017
Spine  4.41093 0.311273 3.49054
Spine1  0.441757 -0.0233553 1.39694
HEad  -7.28046 15.8319 -9.63188
LeftShoulder1  1.85643 -1.19262 -33.4844
LeftArm  21.6233 8.42939 -25.5232
LeftForeArm  -6.25607 -4.2482 -18.9889
LeftHand  0.411069 -0.912996 -7.51395
RightShoulder  8.08618 10.6755 49.9518
RightArm  18.4713 -2.63885 13.4116
RightForeArm  1.99189 -2.18519 19.2093
RightHand  0.417211 2.24315 6.162
LeftUpLeg  -22.4137 15.5492 6.10283
LeftLeg  6.59927 13.8353 -2.18698
LeftFoot  -0.192402 0.615936 -6.29638
LeftToes  5.72949e-011 5.22586e-011 2.45399e-011
720
root  89.3632 39.4736 9.32355 -173.141 -3.77997 -179.331
RightUpLeg  2.21039 -9.69325 -4.29558
RightLeg  6.26837 -21.4988 2.73657
RightFoot  -11.2049 -0.0881528 9.93549
RightToes  -5.8209e-011 0 -3.6325e-017
Spine  4.18535 0.369246 3.62653
Spine1  0.274485 0.0678806 1.3167
HEad  -7.13117 15.4025 -8.73516
LeftShoulder1  1.77515 -0.997421 -33.391
LeftArm  17.8898 13.2527 -25.7068
LeftForeArm  -2.87529 -3.97708 -18.6371
LeftHand  0.452449 -1.22106 -7.85699
RightShoulder  7.27338 9.43797 49.2365
RightArm  20.553 -4.00965 13.0646
RightForeArm  0.716886 -1.17378 19.2529
RightHand  0.431905 2.41832 6.22646
LeftUpLeg  -22.8153 17.5124 5.97917
LeftLeg  7.76623 13.9086 -1.65661
LeftFoot  1.63946 0.64492 -5.75434
LeftToes  5.72949e-011 5.22586e-011 2.45399e-011
